<svg xmlns="http://www.w3.org/2000/svg" viewBox="0 0 231 192">
  <g fill="none" fill-rule="evenodd">
    <circle cx="115.5" cy="96.38" r="95.59" fill="#5D7199"/>
    <path fill="#FFF" fill-opacity=".1" d="M31.07 81.18H210.3V.66H31.06z"/>
    <path fill="#E8E8E3" d="M8.23 71.46c.04-2.4-.05-3.77-.26-4.15-.3-.56-2.28-.45-4.35-.14-2.07.3-3.26.78-3.36 1.45-.1.68 0 1.98.4 2.23.43.26 1.82.52 3.7.57 1.23.04 2.52.06 3.87.06z"/>
    <path fill="#E8E8E3" d="M4.5 71.4c-.07-.46-.33-.8-.77-1.03-.2-.1-1.04-.26-1.87-.36-.82-.1-1.7-.25-1.76-.05-.05.2 0 .63.26.73.26.1 1.33.36 1.92.46.58.1 1.33.2 2.22.26z"/>
    <path fill="#313C53" d="M8.13 73.16c-3.83-.2-6-.43-6.47-.67-.5-.25-.87-.84-1.14-1.77 1.3.35 2.48.55 3.52.62 1.03.07 2.64.1 4.8.1l-.7 1.7z"/>
    <path fill="#E8E8E3" d="M69.83 71.46c-.03-2.4.05-3.77.26-4.15.3-.56 2.27-.45 4.34-.14 2.07.3 3.26.78 3.36 1.45.1.68 0 1.98-.4 2.23-.43.26-1.82.52-3.7.57-1.23.04-2.52.06-3.87.06z"/>
    <path fill="#E8E8E3" d="M73.56 71.4c.07-.46.33-.8.77-1.03.2-.1 1.04-.26 1.87-.36.83-.1 1.7-.25 1.76-.05.05.2 0 .63-.26.73-.26.1-1.33.36-1.92.46-.58.1-1.32.2-2.22.26z"/>
    <path fill="#313C53" d="M69.93 73.16c3.84-.2 6-.43 6.48-.67.5-.25.87-.84 1.14-1.77-1.3.35-2.48.55-3.52.62-1.03.07-2.64.1-4.8.1l.7 1.7zM.52 96.92c0-1.3 1.06-2.38 2.38-2.38h6.63c1.3 0 2.38 1.07 2.38 2.38v14.9c0 1.33-1.06 2.47-2.37 2.56H2.9c-1.32-.1-2.38-1.23-2.38-2.55v-14.9zm65.53 0c0-1.3 1.07-2.38 2.38-2.38h6.63c1.32 0 2.38 1.07 2.38 2.38v14.9c0 1.33-1.06 2.47-2.37 2.56h-6.64c-1.3-.1-2.38-1.23-2.38-2.55v-14.9z"/>
    <path fill="#E8E8E3" d="M38.98 54.17h.1c7.93.1 13.58.36 16.95.77 5.08.62 6.43 3.37 8.7 7 2.3 3.6 6.02 13.14 6.65 13.92.62.77 2.74 2.22 3.62 3.26.9 1.03 1.74 2.4 2.23 3.83.33.96.54 2.48.62 4.55-.08 4.48-.17 7.55-.25 9.22-.1 1.66-.3 4.17-.63 7.5-.38 2-.7 3.04-.98 3.1-.43.1-9.96 1.04-19.97 1.04h-34c-10 0-19.54-.93-19.96-1.03-.27-.07-.6-1.1-.98-3.1-.34-3.34-.55-5.85-.63-7.5C.37 95.04.3 91.97.2 87.5c.1-2.07.3-3.6.63-4.55.5-1.44 1.35-2.8 2.23-3.83.88-1.04 3-2.5 3.63-3.26.6-.78 4.34-10.3 6.62-13.93 2.28-3.62 3.63-6.37 8.7-7 3.38-.4 9.03-.66 16.96-.76z"/>
    <g fill="#313C53">
      <path d="M39 94.96h.03c9-.2 14.43-.4 16.25-.57 2.75-.27 5.9-2.13 5.8-2.65-.1-.52-.98-1.57-2.43-2.75-1-.8-2.23-1.65-3.37-2.07-.76-.27-6.17-.43-16.25-.46H39h-.02c-10.08.03-15.5.2-16.26.46-1.13.42-2.36 1.26-3.36 2.07-1.45 1.18-2.33 2.23-2.43 2.75-.1.52 3.05 2.38 5.8 2.64 1.82.16 7.24.35 16.25.56H39zM2.64 96.98c.2-.16 2.06.42 4.35 1.08 1.6.47 3.46 1 5.06 1.4 2.3.6 4.32 1.08 4.45 1.5.14.4-.14.78-.45 1.24-.57.85-1.14 1.56-1.8 1.97-.7.42-8.14-.2-9.23-1.1-.64-.5-1.54-2.42-2.07-3.97-.36-1.06-.56-1.95-.3-2.12zM75.42 96.98c-.2-.16-2.06.42-4.35 1.08-1.62.47-3.47 1-5.07 1.4-2.3.6-4.32 1.08-4.45 1.5-.13.4.15.78.46 1.24.6.85 1.15 1.56 1.83 1.97.67.42 8.12-.2 9.2-1.1.66-.5 1.56-2.42 2.08-3.97.37-1.06.57-1.95.32-2.12z"/>
      <path stroke="#313C53" d="M16.27 106.2c-.95-.04-1.83-.1-2.65-.16-5.42-.42-9.6-1.02-12.53-1.82.37 2 .7 3.04.97 3.1.42.1 9.95 1.04 19.94 1.04h34.05c10 0 19.53-.93 19.94-1.03.27-.07.6-1.1.97-3.1-2.93.8-7.1 1.4-12.53 1.8-.8.07-1.67.12-2.6.18-2.35-2.4-4.4-3.82-6.13-4.3-1.86-.52-7.4-.76-16.64-.73-9.23-.03-14.8.2-16.66.72-1.74.47-3.78 1.9-6.13 4.3z"/>
    </g>
    <path fill="#313C53" fill-rule="nonzero" d="M39 82.43c-5.2.07-8.74.1-10.64.2-4.8.27-7.74.52-8.46.7-.45.13-1.4.5-2.86 1.07l.08.2c1.45-.6 2.4-.94 2.84-1.06.7-.2 3.63-.44 8.4-.7 1.9-.1 5.45-.13 10.65-.2 5.2.07 8.76.1 10.65.2 4.78.26 7.72.5 8.42.7.44.12 1.4.47 2.83 1.06l.08-.2c-1.45-.58-2.4-.94-2.86-1.06-.7-.2-3.66-.44-8.46-.7-1.9-.1-5.44-.14-10.63-.2H39zm-35.2.6c-.54.65-.92 1.08-1.13 1.3l-.3.3c-.03 0-.05.02-.07.04l-.1.1c-.02 0-.03 0-.06.03l-.06.05c-.1.1-.2.16-.28.25-.3.25-.76 1.03-1.6 2.45v.37c.84-1.4 1.47-2.44 1.73-2.67L2.2 85c.03 0 .05-.02.07-.04l.06-.05.1-.07.07-.06.32-.3c.2-.22.6-.65 1.14-1.3l-.16-.13zM74.26 83.04c.55.64.92 1.07 1.13 1.28.1.12.2.2.3.3.02 0 .04.03.06.05l.1.1c.02 0 .03 0 .06.03l.06.05c.1.1.2.16.3.25.27.25.74 1.03 1.58 2.45v.37c-.83-1.4-1.47-2.44-1.73-2.67l-.28-.24c-.02 0-.04-.02-.06-.04l-.07-.05-.1-.07-.06-.06-.33-.3c-.2-.22-.6-.65-1.14-1.3l.16-.13zM5.54 78.82c.13-.95.44-1.73.9-2.33.5-.65.8-1.3.76-1.63l-.16.3c-.1.27-.3.6-.75 1.2-.5.63-.83 1.44-.97 2.42l.2.02zM72.52 78.82c-.13-.95-.44-1.73-.9-2.33-.5-.65-.8-1.3-.75-1.63l.15.3c.1.27.3.6.76 1.2.5.63.8 1.44.95 2.42l-.2.02z"/>
    <g fill="#F7F7F5">
      <path d="M5.07 86c.42.2 3.23 1.06 4.35 1.35 3.28.82 4.77.94 5.54 1.08.54.1 1.04-.02 1.14-.05.46-.15 2.7-2.02 2.8-2.28.05-.25.07-.42-.1-.56-1.4-1.1-4.88-3.1-6.53-4-3.4-1.8-6.48-2.86-6.78-2.84-.74.05-1.15 1.35-1.5 2.85-.38 1.5-.3 2.2-.12 2.9.17.68.78 1.34 1.2 1.55zM73 86c-.43.2-3.23 1.06-4.36 1.35-3.28.82-4.77.94-5.54 1.08-.54.1-1.04-.02-1.14-.05-.46-.15-2.7-2.02-2.8-2.28-.04-.25-.07-.42.1-.56 1.4-1.1 4.88-3.1 6.53-4 3.4-1.8 6.47-2.86 6.77-2.84.73.05 1.14 1.35 1.5 2.85.37 1.5.28 2.2.1 2.9-.16.68-.77 1.34-1.18 1.55z"/>
    </g>
    <path fill="#313C53" d="M11.54 71.97c-.88 0-1.15-.3-1.24-.36-.88-.56 1.86-6.64 3.26-8.87 1.4-2.24 2.64-5.04 4.5-5.25 1.87-.2 5.98-.4 7.1-.47 1.44-.05 6.1-.25 13.85-.25s12.43.2 13.88.26c1.1.07 5.22.27 7.1.48 1.85.2 3.1 3 4.5 5.25 1.4 2.23 4.13 8.3 3.25 8.88-.1.07-.36.37-1.24.37-2.15 0-11.3-.05-27.48-.15-16.18.1-25.34.15-27.48.15z"/>
    <g fill="#313C53">
      <path d="M18.22 57.58l1.5-.1c.1-.52.3-.97.57-1.35.4-.57 1.13-1.03 1.34-1.14-.14.03-1.2.1-1.92.67-.54.42-1.04 1.06-1.5 1.9zM59.84 57.58l-1.5-.1c-.1-.52-.3-.97-.57-1.35-.4-.57-1.14-1.03-1.35-1.14.15.03 1.2.1 1.92.67.54.42 1.04 1.06 1.5 1.9z"/>
    </g>
    <g>
      <path fill="#E8E8E3" d="M161.17 71.46c.03-2.4-.05-3.77-.26-4.15-.3-.56-2.27-.45-4.34-.14-2.07.3-3.26.78-3.36 1.45-.1.68 0 1.98.4 2.23.43.26 1.82.52 3.7.57 1.23.04 2.52.06 3.87.06z"/>
      <path fill="#E8E8E3" d="M157.44 71.4c-.07-.46-.33-.8-.77-1.03-.2-.1-1.04-.26-1.87-.36-.83-.1-1.7-.25-1.76-.05-.05.2 0 .63.26.73.26.1 1.33.36 1.92.46.58.1 1.32.2 2.22.26z"/>
      <path fill="#313C53" d="M161.07 73.16c-3.84-.2-6-.43-6.48-.67-.5-.25-.87-.84-1.14-1.77 1.3.35 2.48.55 3.52.62 1.03.07 2.64.1 4.8.1l-.7 1.7z"/>
      <path fill="#E8E8E3" d="M222.77 71.46c-.04-2.4.05-3.77.26-4.15.3-.56 2.28-.45 4.35-.14 2.07.3 3.26.78 3.36 1.45.1.68 0 1.98-.4 2.23-.43.26-1.82.52-3.7.57-1.23.04-2.52.06-3.87.06z"/>
      <path fill="#E8E8E3" d="M226.5 71.4c.07-.46.33-.8.77-1.03.2-.1 1.04-.26 1.87-.36.82-.1 1.7-.25 1.76-.05.05.2 0 .63-.26.73-.26.1-1.33.36-1.92.46-.58.1-1.33.2-2.22.26z"/>
      <path fill="#313C53" d="M222.87 73.16c3.83-.2 6-.43 6.47-.67.5-.25.87-.84 1.14-1.77-1.3.35-2.48.55-3.52.62-1.03.07-2.64.1-4.8.1l.7 1.7zM153.46 96.92c0-1.3 1.06-2.38 2.38-2.38h6.62c1.32 0 2.38 1.07 2.38 2.38v14.9c0 1.33-1.06 2.47-2.37 2.56h-6.64c-1.3-.1-2.37-1.23-2.37-2.55v-14.9zm65.53 0c0-1.3 1.06-2.38 2.37-2.38H228c1.3 0 2.38 1.07 2.38 2.38v14.9c0 1.33-1.06 2.47-2.38 2.56h-6.63c-1.32-.1-2.38-1.23-2.38-2.55v-14.9z"/>
      <path fill="#E8E8E3" d="M191.92 54.17h.1c7.93.1 13.58.36 16.95.77 5.08.62 6.43 3.37 8.7 7 2.3 3.6 6.02 13.14 6.64 13.92.64.77 2.76 2.22 3.64 3.26.88 1.03 1.74 2.4 2.23 3.83.33.96.53 2.48.62 4.55-.1 4.48-.18 7.55-.27 9.22-.08 1.66-.3 4.17-.62 7.5-.37 2-.7 3.04-.97 3.1-.42.1-9.96 1.04-19.96 1.04h-34c-10 0-19.54-.93-19.96-1.03-.27-.07-.6-1.1-.97-3.1-.33-3.34-.54-5.85-.63-7.5-.08-1.68-.17-4.75-.25-9.23.08-2.07.3-3.6.62-4.55.5-1.44 1.34-2.8 2.23-3.83.88-1.04 3-2.5 3.62-3.26.63-.78 4.36-10.3 6.64-13.93 2.28-3.62 3.63-6.37 8.7-7 3.38-.4 9.03-.66 16.96-.76z"/>
      <g fill="#313C53">
        <path d="M191.94 94.96h.03c9-.2 14.43-.4 16.25-.57 2.74-.27 5.9-2.13 5.8-2.65-.1-.52-.98-1.57-2.43-2.75-1-.8-2.24-1.65-3.38-2.07-.76-.27-6.17-.43-16.25-.46h-.03-.03c-10.06.03-15.48.2-16.24.46-1.14.42-2.37 1.26-3.36 2.07-1.45 1.18-2.33 2.23-2.44 2.75-.1.52 3.06 2.38 5.8 2.64 1.83.16 7.25.35 16.25.56h.04zm-36.36 2.02c.2-.16 2.06.42 4.35 1.08 1.62.47 3.46 1 5.07 1.4 2.3.6 4.32 1.08 4.45 1.5.13.4-.15.78-.47 1.24-.57.85-1.13 1.56-1.8 1.97-.68.42-8.13-.2-9.22-1.1-.65-.5-1.55-2.42-2.07-3.97-.37-1.06-.57-1.95-.32-2.12zM228.36 96.98c-.2-.16-2.06.42-4.35 1.08-1.6.47-3.46 1-5.06 1.4-2.3.6-4.32 1.08-4.45 1.5-.14.4.14.78.45 1.24.57.85 1.14 1.56 1.8 1.97.7.42 8.14-.2 9.23-1.1.64-.5 1.54-2.42 2.07-3.97.36-1.06.56-1.95.3-2.12z"/>
        <path stroke="#313C53" d="M169.2 106.2c-.94-.04-1.83-.1-2.64-.16-5.42-.42-9.6-1.02-12.54-1.82.38 2 .7 3.04 1 3.1.4.1 9.93 1.04 19.93 1.04H209c9.98 0 19.5-.93 19.93-1.03.27-.07.6-1.1.98-3.1-2.92.8-7.1 1.4-12.52 1.8-.8.07-1.67.12-2.6.18-2.35-2.4-4.4-3.82-6.13-4.3-1.87-.52-7.43-.76-16.66-.73-9.24-.03-14.8.2-16.66.72-1.74.47-3.8 1.9-6.13 4.3z"/>
      </g>
      <path fill="#313C53" fill-rule="nonzero" d="M191.93 82.43c-5.2.07-8.74.1-10.63.2-4.8.27-7.74.52-8.46.7-.45.13-1.4.5-2.86 1.07l.08.2c1.44-.6 2.4-.94 2.83-1.06.7-.2 3.63-.44 8.4-.7 1.9-.1 5.45-.13 10.65-.2 5.2.07 8.75.1 10.64.2 4.77.26 7.7.5 8.4.7.45.12 1.4.47 2.84 1.06l.08-.2c-1.45-.58-2.4-.94-2.86-1.06-.72-.2-3.66-.44-8.46-.7-1.9-.1-5.44-.14-10.63-.2h-.04zm-35.2.6c-.54.65-.9 1.08-1.12 1.3l-.3.3c-.02 0-.04.02-.06.04l-.1.1c-.02 0-.03 0-.06.03l-.06.05c-.1.1-.2.16-.3.25-.27.25-.74 1.03-1.57 2.45v.37c.82-1.4 1.46-2.44 1.72-2.67l.28-.24c.02 0 .04-.02.06-.04l.07-.05.1-.07.06-.06.33-.3c.2-.22.6-.65 1.14-1.3l-.16-.13zM227.2 83.04c.54.64.92 1.07 1.13 1.28.1.12.2.2.3.3.03 0 .05.03.07.05l.1.1c.02 0 .03 0 .06.03l.06.05c.1.1.2.16.28.25.3.25.76 1.03 1.6 2.45v.37c-.84-1.4-1.47-2.44-1.73-2.67l-.28-.24c-.03 0-.05-.02-.07-.04l-.06-.05-.1-.07-.07-.06-.32-.3c-.2-.22-.6-.65-1.14-1.3l.16-.13zM158.48 78.82c.13-.95.44-1.73.9-2.33.5-.65.8-1.3.75-1.63l-.15.3c-.1.27-.3.6-.76 1.2-.5.63-.8 1.44-.95 2.42l.2.02zM225.46 78.82c-.13-.95-.44-1.73-.9-2.33-.5-.65-.8-1.3-.76-1.63l.16.3c.1.27.3.6.75 1.2.5.63.83 1.44.97 2.42l-.2.02z"/>
      <g fill="#F7F7F5">
        <path d="M158 86c.43.2 3.23 1.06 4.36 1.35 3.28.82 4.77.94 5.54 1.08.54.1 1.04-.02 1.14-.05.46-.15 2.7-2.02 2.8-2.28.04-.25.07-.42-.1-.56-1.4-1.1-4.88-3.1-6.53-4-3.4-1.8-6.47-2.86-6.77-2.84-.73.05-1.14 1.35-1.5 2.85-.37 1.5-.28 2.2-.1 2.9.16.68.77 1.34 1.18 1.55zM225.93 86c-.42.2-3.23 1.06-4.35 1.35-3.28.82-4.77.94-5.54 1.08-.54.1-1.04-.02-1.14-.05-.46-.15-2.7-2.02-2.8-2.28-.05-.25-.07-.42.1-.56 1.4-1.1 4.88-3.1 6.53-4 3.4-1.8 6.48-2.86 6.78-2.84.74.05 1.15 1.35 1.5 2.85.38 1.5.3 2.2.12 2.9-.17.68-.78 1.34-1.2 1.55z"/>
      </g>
      <path fill="#313C53" d="M164.48 71.97c-.88 0-1.15-.3-1.24-.36-.88-.56 1.86-6.64 3.26-8.87 1.4-2.24 2.64-5.04 4.5-5.25 1.87-.2 5.97-.4 7.1-.47 1.44-.05 6.1-.25 13.85-.25 7.74 0 12.42.2 13.87.26 1.1.07 5.22.27 7.1.48 1.85.2 3.1 3 4.5 5.25 1.4 2.23 4.13 8.3 3.25 8.88-.1.07-.36.37-1.24.37-2.14 0-11.3-.05-27.48-.15-16.17.1-25.33.15-27.47.15z"/>
      <g fill="#313C53">
        <path d="M171.16 57.58l1.5-.1c.1-.52.3-.97.57-1.35.4-.57 1.14-1.03 1.35-1.14-.15.03-1.2.1-1.92.67-.54.42-1.04 1.06-1.5 1.9zM212.78 57.58l-1.5-.1c-.1-.52-.3-.97-.57-1.35-.4-.57-1.13-1.03-1.34-1.14.14.03 1.2.1 1.92.67.54.42 1.04 1.06 1.5 1.9z"/>
      </g>
    </g>
    <g>
      <path fill="#FF9A00" d="M37.58 85.6c.04-2.56-.06-4.06-.28-4.47-.34-.6-2.46-.5-4.7-.17-2.24.34-3.53.84-3.64 1.57-.12.73 0 2.13.44 2.4.45.3 1.96.57 3.98.63 1.34.03 2.74.05 4.2.05z"/>
      <path fill="#E8E8E3" d="M33.55 85.56c-.08-.5-.36-.88-.84-1.12-.22-.12-1.1-.28-2-.4-.9-.1-1.86-.28-1.9-.05-.07.2 0 .66.27.77.28.1 1.44.4 2.07.5.63.12 1.44.2 2.4.3z"/>
      <path fill="#313C53" d="M37.47 87.46c-4.15-.23-6.48-.47-7-.73-.52-.26-.94-.9-1.23-1.9 1.4.37 2.68.6 3.8.67 1.12.07 2.86.1 5.2.1l-.77 1.86z"/>
      <path fill="#FF9A00" d="M104.2 85.6c-.03-2.56.06-4.06.3-4.47.32-.6 2.45-.5 4.7-.17 2.23.34 3.52.84 3.63 1.57.1.73 0 2.13-.45 2.4-.45.3-1.96.57-3.97.63-1.34.03-2.74.05-4.2.05z"/>
      <path fill="#E8E8E3" d="M108.24 85.56c.08-.5.36-.88.84-1.12.22-.12 1.12-.28 2-.4.9-.1 1.86-.28 1.92-.05.05.2 0 .66-.28.77-.28.1-1.44.4-2.07.5-.64.12-1.44.2-2.4.3z"/>
      <path fill="#313C53" d="M104.32 87.46c4.14-.23 6.48-.47 7-.73.52-.26.93-.9 1.23-1.9-1.42.37-2.7.6-3.8.67-1.13.07-2.86.1-5.2.1l.77 1.86zM29.24 113.16c0-1.42 1.15-2.58 2.57-2.58H39c1.42 0 2.57 1.16 2.57 2.58v16.13c0 1.4-1.15 2.64-2.57 2.74H31.8c-1.4-.1-2.56-1.33-2.56-2.75v-16.14zm70.88 0c0-1.42 1.15-2.58 2.58-2.58h7.16c1.43 0 2.58 1.16 2.58 2.58v16.13c0 1.4-1.15 2.64-2.57 2.74h-7.18c-1.43-.1-2.58-1.33-2.58-2.75v-16.14z"/>
      <path fill="#FF9A00" d="M70.84 66.9h.1c8.57.12 14.7.4 18.33.85 5.5.67 6.96 3.64 9.42 7.56 2.47 3.93 6.5 14.23 7.18 15.07.67.84 2.97 2.4 3.92 3.53.96 1.12 1.88 2.58 2.4 4.14.37 1.04.6 2.68.7 4.93-.1 4.84-.2 8.16-.3 9.96-.1 1.8-.3 4.5-.67 8.12-.4 2.17-.76 3.3-1.06 3.36-.45.12-10.77 1.13-21.6 1.13H52.5c-10.82 0-21.13-1-21.58-1.12-.3-.06-.66-1.18-1.07-3.35-.35-3.6-.57-6.3-.67-8.12-.1-1.8-.2-5.12-.28-9.96.1-2.25.32-3.9.67-4.93.53-1.56 1.46-3.02 2.4-4.14.97-1.12 3.27-2.7 3.94-3.53.68-.84 4.72-11.14 7.18-15.06 2.47-3.9 3.93-6.88 9.42-7.55 3.65-.45 9.76-.73 18.34-.84z"/>
      <g fill="#313C53">
        <path d="M70.86 111.03h.03c9.74-.22 15.6-.43 17.57-.62 2.97-.27 6.38-2.28 6.27-2.84-.1-.56-1.06-1.7-2.63-2.97-1.07-.88-2.4-1.8-3.63-2.25-.82-.3-6.68-.46-17.58-.5h-.04-.03c-10.9.04-16.75.2-17.57.5-1.24.45-2.57 1.37-3.64 2.24-1.57 1.27-2.52 2.4-2.63 2.96-.13.56 3.3 2.57 6.26 2.85 1.97.2 7.83.4 17.57.63h.03zm-39.33 2.18c.23-.15 2.23.48 4.7 1.2 1.76.5 3.76 1.05 5.5 1.5 2.48.64 4.66 1.17 4.8 1.63.15.43-.16.84-.5 1.34-.6.9-1.23 1.68-1.96 2.13-.72.44-8.8-.23-9.96-1.18-.7-.56-1.66-2.63-2.23-4.3-.4-1.16-.6-2.1-.34-2.3zM110.25 113.2c-.23-.15-2.22.48-4.7 1.2-1.76.5-3.75 1.05-5.5 1.5-2.47.64-4.66 1.17-4.8 1.63-.14.43.16.84.5 1.34.62.9 1.23 1.68 1.96 2.13.74.44 8.8-.23 9.98-1.18.7-.56 1.67-2.63 2.24-4.3.4-1.16.6-2.1.33-2.3z"/>
        <path stroke="#313C53" d="M46.27 123.2c-1.03-.06-1.98-.12-2.86-.2-5.85-.44-10.37-1.1-13.55-1.95.4 2.17.77 3.3 1.07 3.36.44.12 10.75 1.13 21.57 1.13h36.8c10.8 0 21.12-1 21.57-1.12.3-.06.65-1.18 1.06-3.35-3.17.86-7.7 1.5-13.55 1.96-.87.08-1.8.14-2.82.2-2.53-2.6-4.74-4.15-6.62-4.66-2.03-.56-8.03-.83-18.02-.8-9.98-.03-16 .24-18 .8-1.9.5-4.1 2.07-6.65 4.67z"/>
      </g>
      <path fill="#313C53" fill-rule="nonzero" d="M70.85 97.48c-5.6.08-9.45.1-11.5.23-5.2.3-8.37.56-9.15.76-.5.14-1.52.52-3.1 1.16l.1.2c1.56-.63 2.58-1 3.06-1.14.75-.2 3.94-.47 9.1-.75 2.05-.1 5.9-.15 11.5-.22 5.64.08 9.47.12 11.52.23 5.17.28 8.35.55 9.1.75.48.13 1.5.5 3.07 1.14l.08-.2c-1.57-.64-2.6-1.02-3.1-1.16-.76-.2-3.94-.47-9.14-.75-2.06-.1-5.9-.14-11.5-.22h-.05zm-38.06.66c-.6.7-1 1.16-1.24 1.4l-.33.3-.06.06-.12.1-.06.05-.07.05c-.1.1-.2.17-.3.26-.32.28-.83 1.12-1.73 2.66v.4c.9-1.52 1.58-2.64 1.87-2.9l.3-.25c.02 0 .04-.03.07-.05l.06-.05.1-.1.08-.05.34-.33c.23-.25.65-.72 1.24-1.42l-.17-.14zM109 98.14l1.22 1.4.34.3.06.06.1.1c.03 0 .04.02.07.05l.06.05c.1.1.2.17.3.26.32.28.82 1.12 1.73 2.66v.4c-.9-1.52-1.6-2.64-1.88-2.9l-.3-.25c-.02 0-.04-.03-.07-.05l-.06-.05c-.06-.04-.1-.07-.12-.1l-.07-.05-.34-.33c-.23-.25-.64-.72-1.23-1.42l.17-.14zM34.67 93.58c.14-1.03.47-1.87.98-2.53.54-.7.85-1.4.8-1.74l-.16.34c-.12.28-.32.63-.83 1.28-.53.7-.87 1.56-1.03 2.63l.23.03zM107.12 93.58c-.15-1.03-.47-1.87-.98-2.53-.54-.7-.85-1.4-.8-1.74l.16.34c.1.28.3.63.8 1.28.55.7.9 1.56 1.04 2.63l-.22.03z"/>
      <g fill="#F7F7F5">
        <path d="M34.16 101.34c.45.23 3.5 1.15 4.7 1.46 3.55.9 5.16 1.02 6 1.18.58.1 1.12-.03 1.23-.06.5-.17 2.9-2.18 3-2.46.07-.28.1-.47-.1-.62-1.5-1.18-5.26-3.36-7.05-4.3-3.68-1.97-7-3.1-7.34-3.1-.77.07-1.22 1.47-1.6 3.1-.4 1.6-.3 2.38-.13 3.12.2.75.84 1.46 1.3 1.68zM107.62 101.34c-.44.23-3.48 1.15-4.7 1.46-3.54.9-5.16 1.02-6 1.18-.58.1-1.12-.03-1.22-.06-.5-.17-2.9-2.18-3.03-2.46-.05-.28-.08-.47.12-.62 1.5-1.18 5.25-3.36 7.04-4.3 3.68-1.97 7-3.1 7.34-3.1.78.07 1.23 1.47 1.62 3.1.4 1.6.3 2.38.1 3.12-.17.75-.83 1.46-1.28 1.68z"/>
      </g>
      <path fill="#313C53" d="M41.16 86.17c-.95 0-1.24-.33-1.34-.4-.95-.6 2-7.18 3.52-9.6s2.86-5.45 4.87-5.67c2.03-.23 6.48-.45 7.68-.5 1.57-.08 6.6-.3 15-.3 8.36 0 13.42.22 15 .3 1.2.05 5.64.27 7.66.5 2 .22 3.36 3.25 4.87 5.67 1.52 2.42 4.5 9 3.54 9.6-.1.07-.4.4-1.35.4-2.32 0-12.23-.06-29.72-.17-17.5.1-27.4.17-29.72.17z"/>
      <g fill="#313C53">
        <path d="M48.4 70.6l1.6-.1c.12-.57.33-1.05.62-1.46.45-.62 1.24-1.12 1.46-1.23-.15.04-1.3.12-2.07.73-.57.46-1.12 1.15-1.6 2.08zM93.4 70.6l-1.62-.1c-.1-.57-.32-1.05-.62-1.46-.45-.62-1.23-1.12-1.45-1.23.16.04 1.3.12 2.08.73.58.46 1.12 1.15 1.62 2.08z"/>
      </g>
    </g>
    <g>
      <path fill="#FFC400" d="M126.8 85.6c.03-2.56-.06-4.06-.3-4.47-.32-.6-2.45-.5-4.7-.17-2.23.34-3.52.84-3.63 1.57-.1.73 0 2.13.45 2.4.45.3 1.96.57 3.97.63 1.34.03 2.74.05 4.2.05z"/>
      <path fill="#E8E8E3" d="M122.76 85.56c-.08-.5-.36-.88-.84-1.12-.22-.12-1.12-.28-2-.4-.9-.1-1.86-.28-1.92-.05-.05.2 0 .66.28.77.28.1 1.44.4 2.07.5.64.12 1.44.2 2.4.3z"/>
      <path fill="#313C53" d="M126.68 87.46c-4.14-.23-6.48-.47-7-.73-.52-.26-.93-.9-1.23-1.9 1.42.37 2.7.6 3.8.67 1.13.07 2.86.1 5.2.1l-.77 1.86z"/>
      <path fill="#FFC400" d="M193.42 85.6c-.04-2.56.06-4.06.28-4.47.34-.6 2.46-.5 4.7-.17 2.24.34 3.53.84 3.64 1.57.12.73 0 2.13-.44 2.4-.45.3-1.96.57-3.98.63-1.34.03-2.74.05-4.2.05z"/>
      <path fill="#E8E8E3" d="M197.45 85.56c.08-.5.36-.88.84-1.12.22-.12 1.1-.28 2-.4.9-.1 1.86-.28 1.9-.05.07.2 0 .66-.27.77-.28.1-1.44.4-2.07.5-.63.12-1.44.2-2.4.3z"/>
      <path fill="#313C53" d="M193.53 87.46c4.15-.23 6.48-.47 7-.73.52-.26.94-.9 1.23-1.9-1.4.37-2.68.6-3.8.67-1.12.07-2.86.1-5.2.1l.77 1.86zM118.45 113.16c0-1.42 1.15-2.58 2.57-2.58h7.17c1.42 0 2.57 1.16 2.57 2.58v16.13c0 1.4-1.15 2.64-2.57 2.74h-7.18c-1.42-.1-2.57-1.33-2.57-2.75v-16.14zm70.88 0c0-1.42 1.16-2.58 2.58-2.58h7.18c1.42 0 2.57 1.16 2.57 2.58v16.13c0 1.4-1.15 2.64-2.57 2.74h-7.18c-1.4-.1-2.57-1.33-2.57-2.75v-16.14z"/>
      <path fill="#FFC400" d="M160.05 66.9h.12c8.58.12 14.7.4 18.34.85 5.5.67 6.95 3.64 9.42 7.56 2.46 3.93 6.5 14.23 7.17 15.07.67.84 2.96 2.4 3.92 3.53.95 1.12 1.88 2.58 2.4 4.14.36 1.04.6 2.68.68 4.93-.1 4.84-.18 8.16-.28 9.96-.1 1.8-.32 4.5-.67 8.12-.4 2.17-.77 3.3-1.07 3.36-.45.12-10.76 1.13-21.58 1.13h-36.78c-10.82 0-21.14-1-21.6-1.12-.3-.06-.64-1.18-1.05-3.35-.36-3.6-.58-6.3-.68-8.12-.1-1.8-.2-5.12-.3-9.96.1-2.25.33-3.9.7-4.93.52-1.56 1.44-3.02 2.4-4.14.95-1.12 3.25-2.7 3.92-3.53.68-.84 4.7-11.14 7.18-15.06 2.47-3.9 3.92-6.88 9.42-7.55 3.64-.45 9.76-.73 18.33-.84z"/>
      <g fill="#313C53">
        <path d="M160.08 111.03h.03c9.75-.22 15.6-.43 17.6-.62 2.95-.27 6.37-2.28 6.26-2.84-.12-.56-1.07-1.7-2.63-2.97-1.08-.88-2.4-1.8-3.64-2.25-.83-.3-6.7-.46-17.6-.5h-.02-.03c-10.9.04-16.76.2-17.58.5-1.23.45-2.56 1.37-3.64 2.24-1.57 1.27-2.52 2.4-2.63 2.96-.1.56 3.3 2.57 6.27 2.85 1.97.2 7.83.4 17.58.63h.03zm-39.33 2.18c.23-.15 2.22.48 4.7 1.2 1.76.5 3.75 1.05 5.5 1.5 2.47.64 4.66 1.17 4.8 1.63.14.43-.16.84-.5 1.34-.62.9-1.23 1.68-1.96 2.13-.74.44-8.8-.23-9.98-1.18-.7-.56-1.67-2.63-2.24-4.3-.4-1.16-.6-2.1-.33-2.3zM199.47 113.2c-.23-.15-2.23.48-4.7 1.2-1.76.5-3.76 1.05-5.5 1.5-2.48.64-4.66 1.17-4.8 1.63-.15.43.16.84.5 1.34.6.9 1.23 1.68 1.96 2.13.72.44 8.8-.23 9.96-1.18.7-.56 1.66-2.63 2.23-4.3.4-1.16.6-2.1.34-2.3z"/>
        <path stroke="#313C53" d="M135.5 123.2c-1.04-.06-2-.12-2.87-.2-5.87-.44-10.4-1.1-13.56-1.95.4 2.17.76 3.3 1.06 3.36.45.12 10.76 1.13 21.57 1.13h18.4-.02 18.43c10.83 0 21.14-1 21.58-1.12.3-.06.66-1.18 1.07-3.35-3.18.86-7.7 1.5-13.56 1.96-.88.08-1.8.14-2.82.2-2.54-2.6-4.75-4.15-6.63-4.66-2.03-.56-8.03-.83-18-.8-10-.03-16 .24-18.03.8-1.88.5-4.1 2.07-6.63 4.67z"/>
      </g>
      <path fill="#313C53" fill-rule="nonzero" d="M160.07 97.48c-5.62.08-9.45.1-11.5.23-5.2.3-8.38.56-9.15.76-.5.14-1.52.52-3.1 1.16l.1.2c1.55-.63 2.58-1 3.06-1.14.75-.2 3.93-.47 9.1-.75 2.05-.1 5.88-.15 11.5-.22 5.63.08 9.47.12 11.5.23 5.18.28 8.37.55 9.12.75.48.13 1.5.5 3.06 1.14l.1-.2c-1.58-.64-2.6-1.02-3.1-1.16-.78-.2-3.96-.47-9.15-.75-2.04-.1-5.88-.14-11.5-.22h-.03zm-38.07.66l-1.22 1.4-.34.3-.06.06-.1.1c-.03 0-.04.02-.07.05l-.06.05c-.1.1-.2.17-.3.26-.32.28-.82 1.12-1.73 2.66v.4c.9-1.52 1.6-2.64 1.88-2.9l.3-.25c.02 0 .04-.03.07-.05l.06-.05c.06-.04.1-.07.12-.1l.07-.05.34-.33c.23-.25.64-.72 1.23-1.42l-.17-.14zM198.2 98.14c.6.7 1 1.16 1.24 1.4l.33.3.06.06.12.1.06.05.07.05c.1.1.2.17.3.26.32.28.83 1.12 1.73 2.66v.4c-.9-1.52-1.58-2.64-1.87-2.9l-.3-.25c-.02 0-.04-.03-.07-.05l-.06-.05-.1-.1-.08-.05-.34-.33c-.23-.25-.65-.72-1.24-1.42l.17-.14zM123.88 93.58c.15-1.03.48-1.87 1-2.53.53-.7.84-1.4.8-1.74l-.18.34c-.1.28-.3.63-.8 1.28-.55.7-.9 1.56-1.04 2.63l.22.03zM196.33 93.58c-.14-1.03-.47-1.87-.98-2.53-.54-.7-.85-1.4-.8-1.74l.16.34c.12.28.32.63.83 1.28.53.7.87 1.56 1.03 2.63l-.23.03z"/>
      <g fill="#F7F7F5">
        <path d="M123.38 101.34c.44.23 3.48 1.15 4.7 1.46 3.54.9 5.16 1.02 6 1.18.58.1 1.12-.03 1.22-.06.5-.17 2.9-2.18 3.03-2.46.05-.28.08-.47-.12-.62-1.5-1.18-5.25-3.36-7.04-4.3-3.68-1.97-7-3.1-7.34-3.1-.78.07-1.23 1.47-1.62 3.1-.4 1.6-.3 2.38-.1 3.12.17.75.83 1.46 1.28 1.68zM196.84 101.34c-.45.23-3.5 1.15-4.7 1.46-3.55.9-5.16 1.02-6 1.18-.58.1-1.12-.03-1.23-.06-.5-.17-2.9-2.18-3-2.46-.07-.28-.1-.47.1-.62 1.5-1.18 5.26-3.36 7.05-4.3 3.68-1.97 7-3.1 7.34-3.1.77.07 1.22 1.47 1.6 3.1.4 1.6.3 2.38.13 3.12-.2.75-.84 1.46-1.3 1.68z"/>
      </g>
      <path fill="#313C53" d="M130.38 86.17c-.96 0-1.25-.33-1.35-.4-.95-.6 2.02-7.18 3.53-9.6 1.5-2.42 2.85-5.45 4.87-5.67 2-.23 6.46-.45 7.67-.5 1.56-.08 6.6-.3 14.98-.3s13.44.22 15 .3c1.2.05 5.66.27 7.67.5 2.02.22 3.36 3.25 4.87 5.67 1.5 2.42 4.48 9 3.53 9.6-.1.07-.4.4-1.34.4-2.3 0-12.2-.06-29.7-.17-17.5.1-27.4.17-29.72.17z"/>
      <g fill="#313C53">
        <path d="M137.6 70.6l1.62-.1c.1-.57.32-1.05.62-1.46.45-.62 1.23-1.12 1.45-1.23-.16.04-1.3.12-2.08.73-.58.46-1.12 1.15-1.62 2.08zM182.62 70.6l-1.63-.1c-.12-.57-.33-1.05-.62-1.46-.45-.62-1.24-1.12-1.46-1.23.15.04 1.3.12 2.07.73.58.46 1.12 1.15 1.62 2.08z"/>
      </g>
    </g>
    <g>
      <path fill="#FF4436" d="M79.67 93.4c.04-2.77-.06-4.38-.3-4.82-.36-.66-2.65-.54-5.06-.18-2.4.36-3.78.9-3.9 1.68-.12.8 0 2.3.48 2.6.48.3 2.1.6 4.28.65 1.44.05 2.95.07 4.5.07z"/>
      <path fill="#E8E8E3" d="M75.34 93.33c-.1-.54-.4-.94-.9-1.2-.25-.12-1.2-.3-2.18-.42-.96-.1-1.98-.3-2.04-.05-.06.24 0 .72.3.84.3.1 1.55.4 2.23.53.68.12 1.54.22 2.6.3z"/>
      <path fill="#313C53" d="M79.55 95.38c-4.46-.24-6.96-.5-7.53-.78-.56-.28-1-.96-1.32-2.05 1.52.4 2.9.64 4.1.72 1.2.08 3.06.13 5.6.13l-.85 1.98z"/>
      <path fill="#FF4436" d="M151.33 93.4c-.04-2.77.06-4.38.3-4.82.36-.66 2.65-.54 5.06-.18 2.4.36 3.78.9 3.9 1.68.12.8 0 2.3-.48 2.6-.48.3-2.1.6-4.27.65-1.45.05-2.95.07-4.52.07z"/>
      <path fill="#E8E8E3" d="M155.67 93.33c.08-.54.38-.94.9-1.2.24-.12 1.2-.3 2.17-.42.96-.1 1.98-.3 2.04-.05.06.24 0 .72-.3.84-.3.1-1.55.4-2.23.53-.68.12-1.54.22-2.58.3z"/>
      <path fill="#313C53" d="M151.45 95.38c4.46-.24 6.97-.5 7.53-.78.56-.28 1-.96 1.32-2.05-1.52.4-2.9.64-4.1.72-1.2.08-3.06.13-5.6.13l.85 1.98zM70.7 123.02c0-1.53 1.24-2.77 2.77-2.77h7.7c1.54 0 2.78 1.24 2.78 2.77v17.35c0 1.53-1.24 2.86-2.77 2.96h-7.72c-1.52-.1-2.76-1.43-2.76-2.96v-17.35zm76.23 0c0-1.53 1.24-2.77 2.77-2.77h7.7c1.54 0 2.78 1.24 2.78 2.77v17.35c0 1.53-1.24 2.86-2.76 2.96h-7.72c-1.53-.1-2.77-1.43-2.77-2.96v-17.35z"/>
      <path fill="#FF4436" d="M115.44 73.28h.12c9.22.13 15.8.43 19.72.9 5.9.73 7.47 3.92 10.13 8.14 2.66 4.2 7 15.3 7.73 16.2.72.9 3.2 2.58 4.22 3.8 1.02 1.2 2.02 2.77 2.6 4.44.37 1.12.6 2.9.7 5.3-.1 5.2-.2 8.78-.3 10.72-.1 1.94-.33 4.85-.7 8.73-.46 2.34-.84 3.55-1.16 3.63-.5.12-11.6 1.2-23.22 1.2H95.72c-11.64 0-22.73-1.08-23.2-1.2-.33-.08-.72-1.3-1.16-3.62-.38-3.87-.62-6.78-.72-8.72-.1-1.94-.2-5.5-.3-10.72.1-2.4.34-4.18.72-5.3.57-1.67 1.57-3.25 2.6-4.45 1.02-1.2 3.5-2.88 4.2-3.8.74-.9 5.08-11.97 7.73-16.18 2.65-4.22 4.2-7.4 10.12-8.13 3.92-.5 10.5-.8 19.72-.92z"/>
      <g fill="#313C53">
        <path d="M115.47 120.73h.03c10.48-.24 16.78-.46 18.9-.66 3.2-.3 6.87-2.47 6.75-3.07-.12-.6-1.14-1.82-2.83-3.2-1.16-.93-2.6-1.92-3.9-2.4-.9-.32-7.2-.5-18.92-.54h-.03-.03c-11.72.04-18.03.22-18.9.54-1.33.48-2.76 1.47-3.92 2.4-1.7 1.38-2.7 2.6-2.83 3.2-.13.6 3.54 2.77 6.73 3.07 2.13.2 8.43.42 18.9.66h.04zm-42.3 2.35c.24-.17 2.4.5 5.06 1.27 1.88.54 4.03 1.14 5.9 1.62 2.67.7 5.02 1.26 5.18 1.75.15.47-.17.9-.54 1.44-.66.98-1.32 1.8-2.1 2.3-.8.47-9.46-.25-10.72-1.27-.75-.62-1.8-2.85-2.4-4.65-.43-1.24-.66-2.26-.37-2.47zM157.83 123.08c-.24-.17-2.4.5-5.06 1.27-1.9.54-4.03 1.14-5.9 1.62-2.67.7-5.02 1.26-5.18 1.75-.16.47.17.9.54 1.44.66.98 1.32 1.8 2.1 2.3.8.47 9.46-.25 10.72-1.27.75-.62 1.8-2.85 2.4-4.65.43-1.24.66-2.26.37-2.47z"/>
        <path stroke="#313C53" d="M89.02 133.83l-3.08-.2c-6.3-.5-11.16-1.2-14.58-2.12.44 2.34.82 3.55 1.15 3.63.5.12 11.58 1.2 23.2 1.2h39.58c11.64 0 22.73-1.08 23.2-1.2.34-.08.72-1.3 1.16-3.62-3.42.94-8.28 1.64-14.58 2.12-.93.07-1.94.14-3.03.2-2.73-2.78-5.1-4.46-7.12-5-2.17-.6-8.63-.9-19.37-.86-10.74-.04-17.2.24-19.38.84-2.02.56-4.4 2.23-7.13 5.03z"/>
      </g>
      <path fill="#313C53" fill-rule="nonzero" d="M115.46 106.16c-6.04.08-10.17.12-12.37.24-5.6.3-9.02.6-9.85.82-.53.14-1.64.55-3.33 1.24l.1.22c1.68-.68 2.78-1.1 3.3-1.23.8-.22 4.22-.5 9.78-.8 2.2-.13 6.33-.17 12.38-.25 6.05.08 10.17.12 12.37.24 5.56.3 9 .6 9.8.8.5.15 1.6.56 3.3 1.24l.08-.22c-1.7-.7-2.8-1.1-3.32-1.24-.82-.22-4.25-.5-9.83-.82-2.2-.12-6.33-.16-12.37-.24h-.04zm-40.94.7c-.64.76-1.08 1.26-1.32 1.5l-.36.35-.07.07-.12.1-.06.05-.08.06-.33.28c-.35.3-.9 1.2-1.86 2.86v.42c.96-1.62 1.7-2.83 2-3.1l.33-.28c.02 0 .04-.03.07-.05l.07-.05.13-.1.07-.06.37-.37c.25-.25.7-.75 1.34-1.5l-.18-.16zM156.48 106.87c.64.75 1.08 1.25 1.32 1.5l.36.34.07.07.12.1.06.05.08.06.34.28c.33.3.87 1.2 1.84 2.86v.42c-.96-1.62-1.7-2.83-2-3.1l-.33-.28c-.02 0-.04-.03-.07-.05l-.07-.05-.13-.1-.07-.06-.37-.37c-.25-.25-.7-.75-1.33-1.5l.18-.16zM76.54 101.96c.16-1.1.5-2 1.06-2.7.58-.76.9-1.53.87-1.9l-.18.37c-.13.3-.35.67-.9 1.37-.57.74-.94 1.7-1.1 2.83l.24.03zM154.46 101.96c-.16-1.1-.5-2-1.06-2.7-.58-.76-.9-1.53-.87-1.9l.18.37c.14.3.35.67.9 1.37.57.74.94 1.7 1.1 2.83l-.24.03z"/>
      <g fill="#F7F7F5">
        <path d="M76 110.32c.48.24 3.75 1.23 5.06 1.56 3.8.96 5.54 1.1 6.44 1.27.63.12 1.2-.03 1.32-.06.54-.2 3.14-2.36 3.26-2.66.06-.3.1-.5-.12-.67-1.63-1.26-5.66-3.6-7.6-4.63-3.95-2.1-7.53-3.34-7.88-3.3-.84.05-1.32 1.55-1.75 3.3-.42 1.74-.3 2.57-.12 3.37.2.8.92 1.58 1.4 1.82zM155 110.32c-.48.24-3.75 1.23-5.05 1.56-3.82.96-5.55 1.1-6.45 1.27-.63.12-1.2-.03-1.32-.06-.54-.2-3.13-2.36-3.25-2.66-.06-.3-.1-.5.12-.67 1.62-1.26 5.66-3.6 7.58-4.63 3.96-2.1 7.54-3.34 7.9-3.3.83.05 1.32 1.55 1.74 3.3.42 1.74.3 2.57.12 3.37-.2.8-.9 1.58-1.4 1.82z"/>
      </g>
      <path fill="#313C53" d="M83.52 94c-1.02 0-1.33-.35-1.44-.43-1.02-.66 2.17-7.73 3.8-10.33 1.62-2.6 3.06-5.86 5.23-6.1 2.18-.24 6.96-.48 8.26-.54 1.68-.08 7.1-.3 16.1-.3 9.02 0 14.46.22 16.15.3 1.3.06 6.1.3 8.26.54 2.16.24 3.6 3.5 5.23 6.1 1.62 2.6 4.8 9.67 3.8 10.33-.12.08-.44.43-1.46.43-2.5 0-13.14-.06-31.96-.18-18.8.12-29.47.18-31.96.18z"/>
      <g fill="#313C53">
        <path d="M91.3 77.26l1.74-.12c.12-.6.34-1.13.66-1.57.48-.66 1.33-1.2 1.57-1.32-.17.03-1.4.12-2.23.78-.63.5-1.2 1.23-1.75 2.23zM139.7 77.26l-1.74-.12c-.12-.6-.34-1.13-.66-1.57-.48-.66-1.33-1.2-1.57-1.32.17.03 1.4.12 2.23.78.63.5 1.2 1.23 1.75 2.23z"/>
      </g>
    </g>
  </g>
</svg>
