<svg xmlns="http://www.w3.org/2000/svg" xmlns:xlink="http://www.w3.org/1999/xlink" viewBox="0 0 146 146"><defs><path id="a" d="M0 .19h1.64v26.69H0V.19z"/></defs><g fill="none" fill-rule="evenodd"><circle cx="73" cy="73" r="73" fill="#FF9A00"/><path fill="#FAD8B2" d="M83.48 70.7L124 60.16l4.37 19.93-39.44 12.57z"/><path fill="#897969" d="M91.7 70.64l-43.07-1.02 7.62 3.22L78 77.44z"/><path fill="#FAD8B2" d="M108.42 92.22l-1.91 1.17-23.16-11.9M68.3 73.82l31.28-6.56"/><path fill="#897969" d="M81.75 120.1a5.6 5.6 0 0 1-7.4 2.78l-33.63-15.23c-2.38-1.08 1.58-1.22 2.65-3.6l-.08-2c1.07-2.38-.69-4.9 1.7-3.82l34.4 15.58a4.77 4.77 0 0 1 2.36 6.28"/><path fill="#897969" d="M91.9 113.8a5.19 5.19 0 0 1-6.84 2.57l-33.64-15.22a5.18 5.18 0 0 1-2.58-6.85 5.19 5.19 0 0 1 6.84-2.57l33.64 15.23a5.18 5.18 0 0 1 2.58 6.84m9.65-6.99a5.18 5.18 0 0 1-6.84 2.58L61.07 94.16a5.18 5.18 0 0 1-2.58-6.84 5.18 5.18 0 0 1 6.84-2.58l33.64 15.23a5.19 5.19 0 0 1 2.58 6.84"/><path fill="#897969" d="M60.34 71l45.98 21.17a5.18 5.18 0 0 1 2.58 6.84 5.19 5.19 0 0 1-6.84 2.58l-55.9-25.3"/><path fill="#897969" d="M36.95 65.13L26.03 85.7 56.97 115c.9.41 1.95.01 2.36-.88l15.5-34.26c.41-.9.01-1.96-.88-2.36l-37-12.37z"/><path fill="#FAD8B2" d="M37.54 107.94l-.3-.21a4.4 4.4 0 0 1-1.07-6.11l8.72-12.4a4.4 4.4 0 0 1 6.1-1.06l.31.22a4.4 4.4 0 0 1 1.07 6.1l-8.72 12.4a4.4 4.4 0 0 1-6.1 1.06m7.2 5.64l-.3-.21a4.4 4.4 0 0 1-1.06-6.11l8.71-12.4a4.4 4.4 0 0 1 6.11-1.06l.3.22a4.4 4.4 0 0 1 1.07 6.1l-8.72 12.4a4.4 4.4 0 0 1-6.1 1.06"/><path fill="#FAD8B2" d="M51.9 119.15l-.31-.22a4.4 4.4 0 0 1-1.06-6.1l8.71-12.4a4.4 4.4 0 0 1 6.1-1.06l.32.21a4.4 4.4 0 0 1 1.06 6.11L58 118.09a4.4 4.4 0 0 1-6.1 1.06"/><path fill="#FAD8B2" d="M59.2 124.57l-.3-.22a4.4 4.4 0 0 1-1.07-6.1l8.71-12.4a4.4 4.4 0 0 1 6.11-1.06l.3.21a4.4 4.4 0 0 1 1.07 6.1l-8.71 12.4a4.4 4.4 0 0 1-6.11 1.07"/><path fill="#D1D1D1" d="M145.84 77.85l-32.44 10.4-7.48-24.63 35.02-17.39a72.81 72.81 0 0 1 4.9 31.62z"/><path fill="#FF4436" d="M5.33 45.56l33.88 16.22-12.6 29.55L.5 81.64a72.8 72.8 0 0 1 4.83-36.08z"/><path fill="#FAD8B2" d="M62.35 92.83a5.38 5.38 0 0 1-5.1-7.12c1.9-5.55 6.99-12.72 20.48-15.34a55.57 55.57 0 0 1 14.15-.8 5.38 5.38 0 0 1-.98 10.72c-.2-.02-19.92-1.47-23.46 8.89a5.38 5.38 0 0 1-5.09 3.65"/><path fill="#FFC400" d="M73.08 53.54a5.66 5.66 0 0 1-2.69 2.68.6.6 0 0 0 0 1.09 5.66 5.66 0 0 1 2.69 2.68.6.6 0 0 0 1.08 0 5.67 5.67 0 0 1 2.68-2.68.6.6 0 0 0 0-1.09 5.66 5.66 0 0 1-2.68-2.68.6.6 0 0 0-1.08 0m-30.2-3.1a3.26 3.26 0 0 1-1.54 1.54.34.34 0 0 0 0 .63c.68.32 1.22.87 1.54 1.54.13.27.5.27.63 0 .32-.67.87-1.22 1.54-1.54a.34.34 0 0 0 0-.63 3.26 3.26 0 0 1-1.54-1.54.34.34 0 0 0-.63 0m45.58-12.95c-.23.49-.63.89-1.12 1.12-.2.09-.2.36 0 .45.49.23.89.63 1.12 1.12.09.2.36.2.45 0 .23-.49.63-.89 1.12-1.12.2-.09.2-.36 0-.45a2.36 2.36 0 0 1-1.12-1.12.25.25 0 0 0-.45 0"/><path fill="#697E9F" d="M65.73 36.1c-.18.4-.5.7-.89.9a.2.2 0 0 0 0 .35c.4.19.7.5.9.9a.2.2 0 0 0 .35 0c.19-.4.5-.71.9-.9a.2.2 0 0 0 0-.36c-.4-.18-.71-.5-.9-.89a.2.2 0 0 0-.36 0m14.02 9.79c-.19.39-.5.7-.9.89a.2.2 0 0 0 0 .36c.4.18.71.5.9.89a.2.2 0 0 0 .36 0c.18-.39.5-.7.89-.9a.2.2 0 0 0 0-.35c-.4-.19-.7-.5-.9-.89a.2.2 0 0 0-.35 0M79 35.83c-.19.4-.5.7-.9.9a.2.2 0 0 0 0 .35c.4.19.71.5.9.9a.2.2 0 0 0 .36 0c.18-.4.5-.71.89-.9a.2.2 0 0 0 0-.36c-.4-.18-.7-.5-.9-.89a.2.2 0 0 0-.35 0m25.24-2.99c-.19.4-.5.7-.9.9a.2.2 0 0 0 0 .35c.4.19.71.5.9.9a.2.2 0 0 0 .36 0c.18-.4.5-.71.89-.9a.2.2 0 0 0 0-.36c-.4-.18-.7-.5-.9-.89a.2.2 0 0 0-.35 0m-50.6 11.27l.91-.91a.44.44 0 0 0-.62-.63l-.91.92-.92-.92a.44.44 0 0 0-.62.63l.91.91-.91.91a.44.44 0 1 0 .62.63l.92-.92.9.92a.44.44 0 0 0 .63 0 .44.44 0 0 0 0-.63l-.91-.91zm56.65 2.02l.45-.46a.22.22 0 1 0-.3-.31l-.46.46-.46-.46a.22.22 0 1 0-.31.31l.45.46-.45.45a.22.22 0 1 0 .31.31l.46-.45.45.45a.22.22 0 0 0 .31 0 .22.22 0 0 0 0-.3l-.45-.46zM86.16 28.85l.6-1.25a.47.47 0 1 0-.85-.41l-.6 1.25-1.26-.6a.47.47 0 1 0-.4.85l1.24.6-.6 1.26a.47.47 0 1 0 .85.4l.6-1.24 1.26.6a.47.47 0 0 0 .63-.22.47.47 0 0 0-.22-.64l-1.25-.6z"/><path fill="#FFF" d="M59.03 58.34a.82.82 0 0 1-.57-.24L40.74 40.38a.82.82 0 1 1 1.16-1.16l17.7 17.72a.82.82 0 0 1-.58 1.4m-3.57-19.32a.82.82 0 0 1-.7-.41l-2.48-4.29a.82.82 0 0 1 1.42-.82l2.47 4.29a.82.82 0 0 1-.7 1.23m10.05 17.4a.82.82 0 0 1-.71-.4c-.93-1.6-1.84-3.26-2.72-4.85a211.29 211.29 0 0 0-3.58-6.32.82.82 0 0 1 1.4-.84c1.26 2.1 2.45 4.27 3.61 6.37.88 1.59 1.78 3.23 2.7 4.82a.82.82 0 0 1-.7 1.23M89.32 58a.82.82 0 0 1-.58-1.4l17.71-17.71a.82.82 0 1 1 1.16 1.15L89.89 57.76a.82.82 0 0 1-.58.24"/><g transform="translate(72.8 22.82)"><mask id="b" fill="#fff"><use xlink:href="#a"/></mask><path fill="#FFF" d="M.82 26.88a.82.82 0 0 1-.82-.82V1.01a.82.82 0 1 1 1.64 0v25.05c0 .46-.37.82-.82.82" mask="url(#b)"/></g><path fill="#FFF" d="M92.88 38.68a.82.82 0 0 1-.7-1.23l2.47-4.29a.82.82 0 1 1 1.42.82l-2.48 4.29a.82.82 0 0 1-.7.41M82.82 56.09a.82.82 0 0 1-.7-1.23c.91-1.59 1.82-3.23 2.7-4.82a205 205 0 0 1 3.6-6.37.82.82 0 1 1 1.41.85c-1.24 2.07-2.43 4.23-3.58 6.31-.88 1.6-1.79 3.25-2.72 4.85a.82.82 0 0 1-.7.41"/><path fill="#FAD8B2" d="M109.14 84.34s2.39 6.6-1.46 8.34l-7.82-3.49-18.79-8.65 4.24-2.45 23.83 6.25z"/></g></svg>