<svg xmlns="http://www.w3.org/2000/svg" viewBox="0 0 146 146"><g fill="none" fill-rule="evenodd"><circle cx="73" cy="73" r="73" fill="#06A09D"/><path fill="#FFE7B8" d="M.36 80.27l4.6-1.19a27.3 27.3 0 0 1 4.18-1.34c7.57-2.99 9.78-11.73 9.8-11.82a3.53 3.53 0 1 1 6.87 1.67c-.08.31-1.15 4.56-4.24 8.88 5.8-.04 11.02.49 13.3.76h5.51c2.45 0 4.91-.18 7.33-.53l6.12-.87a2.83 2.83 0 0 1 .8 5.62l-6.12.87c-2.68.38-5.41.58-8.12.58h-4.61l-.08 1.36h4.68c2.45 0 4.91-.19 7.33-.53l8.5-.88a2.83 2.83 0 0 1 .8 5.62l-8.5.88c-2.68.38-5.41.58-8.12.58h-5.04l-.08 1.36h4.64a54.4 54.4 0 0 0 7.33-.53l7.73-.88a2.83 2.83 0 0 1 .8 5.62l-7.73.88c-2.68.38-5.41.58-8.12.58h-4.99l-.08 1.36h5.06c2.45-.01 4.91-.19 7.33-.54l4.58-.78a2.83 2.83 0 0 1 .8 5.62l-4.58.78c-2.68.39-5.41.58-8.12.59h-5.86a50.13 50.13 0 0 1-23.9-4.3 7.04 7.04 0 0 0-5.08-.29l-.14.05A72.56 72.56 0 0 1 .36 80.27z"/><path fill="#313C53" d="M65.93 74.24c.5-.52 1.35-.54 1.87-.03l3.94 3.82a1.32 1.32 0 1 1-1.84 1.9l-3.94-3.81a1.33 1.33 0 0 1-.03-1.88M40.33 95.9l11.07 10.73a3.92 3.92 0 0 0 5.53-.1l20.02-20.8a3.95 3.95 0 0 0-.09-5.55L65.79 69.45a3.92 3.92 0 0 0-5.54.1l-20.02 20.8a3.95 3.95 0 0 0 .1 5.55"/><path fill="#5E7391" d="M61.29 76.06l9.14 8.86a2.82 2.82 0 0 1 .07 3.96L56.43 103.5a2.8 2.8 0 0 1-3.95.07l-9.14-8.86a2.82 2.82 0 0 1-.07-3.96l14.07-14.62a2.8 2.8 0 0 1 3.95-.07"/><path fill="#5D7199" d="M52.71 103.49c.98.94 2.54.91 3.48-.07l14.23-14.77a2.5 2.5 0 0 0-.06-3.5l-9.3-9a2.46 2.46 0 0 0-3.48.06L43.35 90.98c-.94.98-.92 2.55.06 3.5l9.3 9zm8.65-27.67l9.3 9.01a2.93 2.93 0 0 1 .08 4.13L56.5 103.73a2.9 2.9 0 0 1-4.1.08l-9.3-9.01a2.93 2.93 0 0 1-.07-4.13L57.25 75.9a2.9 2.9 0 0 1 4.11-.08z"/><path fill="#313C53" d="M50.46 83.28l13.16 12.75-.3.33L50.14 83.6zm3.24 12.4l.8-.83c.76-.78.8-1.97.1-2.66-.71-.68-1.9-.6-2.65.19l-.8.83 2.55 2.47zm1.2-3.8c.88.84.85 2.32-.07 3.28l-1.12 1.16-3.2-3.1 1.12-1.16c.93-.96 2.4-1.04 3.27-.19z"/><path fill="#313C53" d="M51.07 93.45l.32.31-.36.37a1.22 1.22 0 1 0 1.75 1.7l.36-.37.33.31-.36.37a1.67 1.67 0 1 1-2.4-2.32l.36-.37zm6.11-10.37l.32.31-.36.37a1.22 1.22 0 1 0 1.75 1.7l.37-.37.32.31-.36.38a1.67 1.67 0 1 1-2.4-2.33l.36-.37zm-3.64 9.89l.32.3-.8.85-.33-.32z"/><path fill="#313C53" d="M61.76 87.3l.81-.83c.75-.78.8-1.97.09-2.65-.7-.69-1.89-.6-2.64.18l-.8.83 2.54 2.47zm1.2-3.8c.89.85.85 2.32-.07 3.28l-1.12 1.16-3.19-3.1 1.12-1.16c.92-.95 2.39-1.04 3.27-.19z"/><path fill="#313C53" d="M61.61 84.58l.32.31-.8.84-.33-.3z"/><path fill="#C8C8C6" d="M77.43 75.75a5.63 5.63 0 0 0 8.75 4.68 5.64 5.64 0 1 0-8.75-4.68m12.6-.1a6.94 6.94 0 1 1-13.76-1.34 6.94 6.94 0 0 1 13.75 1.33"/><path fill="#A4A4A3" d="M85.02 98.9l1.03 5.75-1.31-.12 1.21 6.77 1.5 1.15 1.8 9.96c.08.5.33.94.69 1.28l1.3 1.21a1 1 0 0 0 1.57-.3l.9-1.8c.17-.36.23-.77.16-1.16l-4.24-23.57-4.6.84z"/><path fill="#C8C8C6" d="M85.02 98.9l1.03 5.75-1.31-.12 1.21 6.77 1.5 1.15 1.8 9.96c.08.5.33.94.69 1.28l1.3 1.21c.21.2.47.27.73.26L87.18 98.5l-2.16.4z"/><path fill="#313C53" d="M90.25 89.21l-9.9 1.8a1.59 1.59 0 0 1-.56-3.13l9.9-1.8a1.59 1.59 0 0 1 .56 3.13m-.8-5.62l-10.28 1.87a4.1 4.1 0 0 0-3.3 4.76l1.52 8.46h.02a9.3 9.3 0 0 0 18.28-3.33h.03l-1.52-8.46a4.08 4.08 0 0 0-4.75-3.3"/><path fill="#5D7199" d="M85.67 92.55a4.76 4.76 0 0 0-3.81 5.51 4.73 4.73 0 1 0 9.3-1.69 4.73 4.73 0 0 0-5.49-3.82m1.77 9.83a5.23 5.23 0 0 1-6.08-4.23 5.23 5.23 0 1 1 10.3-1.87 5.26 5.26 0 0 1-4.22 6.1"/><path fill="#E4E4DF" d="M78.43 75.98a.71.71 0 0 1-.52.61l-6.66 1.86c-.4.1-.8-.11-.92-.49a.7.7 0 0 1 .5-.88l6.65-1.85c.4-.1.8.1.92.48.03.1.04.19.03.27"/><path fill="#FFC400" d="M59.19 59.64c-.36.51-.9.88-1.5 1.05a.29.29 0 0 0-.08.51c.5.36.87.9 1.04 1.5.06.23.37.29.51.09.36-.51.9-.89 1.5-1.05.23-.07.28-.37.08-.52-.5-.36-.88-.89-1.04-1.49a.29.29 0 0 0-.51-.09m-11.05 4.5a4.87 4.87 0 0 1-2.67 1.88.52.52 0 0 0-.16.92 4.9 4.9 0 0 1 1.86 2.68c.12.42.67.52.92.16a4.87 4.87 0 0 1 2.67-1.88.52.52 0 0 0 .16-.92 4.87 4.87 0 0 1-1.86-2.67.51.51 0 0 0-.92-.17m24.52 41.9a4.87 4.87 0 0 1-2.67 1.88.52.52 0 0 0-.16.92c.9.65 1.57 1.6 1.87 2.68a.5.5 0 0 0 .91.16 4.87 4.87 0 0 1 2.67-1.88.52.52 0 0 0 .17-.92 4.87 4.87 0 0 1-1.87-2.67.51.51 0 0 0-.92-.17m32.22-22.94c-.38.55-.95.94-1.58 1.12a.3.3 0 0 0-.1.54c.54.38.93.95 1.1 1.59.08.25.4.3.55.1.38-.55.94-.94 1.58-1.12a.3.3 0 0 0 .1-.54 2.89 2.89 0 0 1-1.1-1.59.3.3 0 0 0-.55-.1"/><path fill="#454F68" d="M100.61 97.82c-.19.27-.47.47-.79.55a.15.15 0 0 0-.04.28c.26.19.46.47.55.79.03.13.2.15.27.05.2-.27.47-.47.8-.56.12-.03.15-.2.04-.27a1.4 1.4 0 0 1-.55-.8.15.15 0 0 0-.28-.04M51.88 52.85a1.7 1.7 0 0 1-.91.65.18.18 0 0 0-.06.31c.31.22.54.55.64.92.04.14.22.17.31.05.22-.31.55-.54.92-.64a.18.18 0 0 0 .05-.32 1.67 1.67 0 0 1-.64-.91.18.18 0 0 0-.31-.06"/><path fill="#C8C8C6" d="M88.88 71.86a6.93 6.93 0 0 1 1 5.24 6.94 6.94 0 0 1-12.6 2.45l3.33 1.75 1.33-.05a5.63 5.63 0 0 0 6.66-4.41c.3-1.49.01-3-.82-4.26"/><path fill="#E4E4DF" d="M83.55 80.56a.65.65 0 0 1 .83.59l.4 6.1a.65.65 0 0 1-1.3.09l-.4-6.11a.66.66 0 0 1 .47-.67"/><path fill="#F4D0B0" d="M139.14 56.13v-.01l-3.96-15.4.47.52c-.18.17-6.62 2.24-15.21 4.05a17.85 17.85 0 0 1-11.51-1.43 90.57 90.57 0 0 0-18.36-11.93l-3.07-1.5a3.88 3.88 0 0 0-3.4 6.98l3.08 1.5c1.43.7 2.84 1.45 4.23 2.23a90.38 90.38 0 0 0-11.68-1.18l-3.42-.12a3.88 3.88 0 0 0-.28 7.76l3.42.12c4 .14 7.99.57 11.92 1.3a90.1 90.1 0 0 0-17.8 2.7l-3.23.84a3.94 3.94 0 0 0-2.9 4.67 3.86 3.86 0 0 0 4.72 2.87l3.32-.85a98.96 98.96 0 0 1 14.54-2.38c-4.29 2.69-6.48 7-8.01 14.94a3.88 3.88 0 0 0 3.05 4.54c1.82.36 3.68-.7 4.28-2.46 5.94-17.24 10.63-15.08 13.94-13.92 2.8 1.38 3.88 5.28 2.5 7.87-2.86 5.36-7.73 4.66-12.01 4.79a3.88 3.88 0 1 0 .13 7.76c10.03-.25 17.9-5.9 21.42-11.33a10 10 0 0 1 2.14-2l21.68-10.93z"/><path fill="#FF4436" d="M144.48 58.11l-13.35 4.39-4.68-21.48 10.35-3.51a72.5 72.5 0 0 1 7.68 20.6z"/></g></svg>