<svg xmlns="http://www.w3.org/2000/svg" xmlns:xlink="http://www.w3.org/1999/xlink" viewBox="0 0 216 193"><defs><circle id="a" cx="96" cy="96" r="96"/><path id="c" d="M0 .15h64.04V63H0z"/></defs><g fill="none" fill-rule="evenodd"><g transform="translate(0 1)"><mask id="b" fill="#fff"><use xlink:href="#a"/></mask><use fill="#FFEBB6" fill-rule="nonzero" xlink:href="#a"/><path fill="#FF9A00" fill-rule="nonzero" d="M-2 138h204v62H-2" mask="url(#b)"/><g fill-rule="nonzero" mask="url(#b)"><path fill="#313C53" d="M187 142H4v26h183"/><path fill="#5D7199" d="M-24.9 152.26c.06-4.16 1.52-8.18 4.16-11.4l1.4-14.42s-1.12-1.12-.42-1.82c.7-.7 13.4-1.96 13.4-1.96s21.75-9.52 45.6-13.58c23.85-4.05 54.4-9.94 95.83 10.92 0 0 11.08 7.42 34.84 11.06 23.77 3.64 33.8 10.78 34.8 16.94.56 3.63.9 10.15 1.05 14.9.1 3.26-2.34 6.03-5.58 6.3-4.6.37-10.77.8-13.6.75-.66 0-1.17-.6-1.1-1.3l.04-.26c.3-1.44.47-2.9.47-4.4 0-11.6-9.47-20.98-21.07-20.77-10.98.2-19.97 9.13-20.3 20.13-.07 2.66.35 5.2 1.18 7.57l.03.44-104.05-1.53c-.3 0-.5-.28-.42-.55.45-1.7.7-3.48.7-5.3 0-11.48-9.27-20.77-20.7-20.77S.63 152.53.63 164c0 1.12.1 2.22.27 3.3.06.32-.24.62-.57.56l-17.25-2.62c-2.75-.42-5.25-1.97-6.73-4.34-.48-.77-.86-1.63-1-2.54-.22-1.46-.26-3.82-.24-6.1"/><path fill="#FFF3F2" d="M172.04 136.1s10.32.84 21.48 9.66c0 0 6.98 2.66 7.67 2.1.7-.56.82-5.04-5.04-7.7s-14.1-4.62-24.13-4.06"/><path fill="#FF4436" d="M130.13 123.3c2.87.32 5.02 2.3 4.8 4.42-.23 2.13-2.74 3.6-5.6 3.3a6.6 6.6 0 0 1-2.52-.78l.83-6.73c.77-.2 1.62-.27 2.5-.2"/><path fill="#445068" d="M25.3 124.48l-9.07-4.2s33.37-12.92 64.8-12.04c31.4.88 65.83 23.1 65.83 23.1-18 1.15-60.6-3.64-60.6-3.64l-60.97-3.22z"/><path fill="#5D7199" d="M72.45 107.42l1.04 20.07 9.64.63-5.72-20.72"/><path fill="#445068" d="M193.42 158.96c-.66.74-1.75 2.64-2.63 4.28-.68 1.23.2 2.72 1.6 2.72h8.96s.84-5.04-1.4-6.16c-2.22-1.12-6.55-.84-6.55-.84M6.1 157.58c-4.03 8.45-.47 18.57 7.94 22.6 8.4 4.04 18.5.47 22.52-7.98 4.02-8.44.46-18.56-7.95-22.6-8.4-4.04-18.5-.46-22.5 7.98"/><path fill="#E8E8E3" d="M10.33 159.62c-2.9 6.1-.33 13.4 5.74 16.3 6.07 2.9 13.34.34 16.24-5.76 2.93-6.1.36-13.4-5.7-16.3-6.08-2.9-13.36-.33-16.26 5.76"/><path fill="#445068" d="M27.95 167.36l3.63.2c-.17.64-.4 1.28-.7 1.92-.3.62-.65 1.2-1.04 1.73l-2.43-2.7c-.4-.44-.05-1.16.56-1.13m-4.17-9.12l.2-3.64c.63.18 1.27.4 1.9.7.62.3 1.2.66 1.73 1.06l-2.7 2.44c-.45.4-1.17.05-1.14-.56m-5.4.2l-2.45-2.7c1.18-.7 2.47-1.16 3.82-1.36l-.2 3.64c-.02.6-.78.88-1.2.42m-7.3 3.8c.18-.66.4-1.3.7-1.93.3-.6.66-1.2 1.05-1.72l2.44 2.7c.4.46.06 1.2-.55 1.16m13.06-.5l2.7-2.44a10.97 10.97 0 0 1 1.35 3.82l-3.62-.2c-.6-.02-.88-.78-.42-1.2m-8.88 9.63l-.2 3.63c-.64-.17-1.3-.4-1.9-.7-.63-.3-1.2-.65-1.74-1.05l2.7-2.43a.685.685 0 0 1 1.14.55m5.4-.2l2.43 2.7a10.3 10.3 0 0 1-3.8 1.35l.2-3.63c.02-.62.77-.9 1.2-.43m-9.4-3.5l-2.7 2.45c-.7-1.2-1.14-2.5-1.34-3.85l3.62.2c.62.03.88.78.43 1.2m4.6-3.83c-.46 1-.04 2.2.95 2.68 1 .48 2.2.06 2.67-.94.48-1 .06-2.2-.93-2.67-1-.5-2.2-.07-2.68.92m4.2-2.1c-.28.6-.03 1.3.55 1.56a1.16 1.16 0 0 0 .99-2.1c-.57-.28-1.26-.03-1.54.54m-3.84-1.84c-.27.58-.03 1.27.55 1.55.6.28 1.28.03 1.55-.55.28-.58.03-1.27-.54-1.55-.57-.28-1.26-.03-1.54.55m.6 8.65c-.27.58-.02 1.27.55 1.55.6.28 1.28.03 1.56-.55.27-.58.03-1.27-.55-1.55-.56-.28-1.26-.03-1.53.55m-3.85-1.85c-.26.58-.02 1.28.56 1.55.57.28 1.27.03 1.54-.54.28-.58.03-1.28-.54-1.56a1.17 1.17 0 0 0-1.55.55m-.38-4.58c-.28.58-.03 1.28.54 1.56.57.26 1.26.02 1.54-.56.3-.58.04-1.28-.54-1.55-.57-.3-1.26-.04-1.54.53m7.84 3.77c-.28.58-.03 1.27.54 1.55.58.27 1.27.03 1.55-.55.27-.58.02-1.27-.56-1.55-.57-.28-1.26-.03-1.54.55m125.98-8.52c-4.02 8.45-.46 18.57 7.96 22.6 8.4 4.04 18.5.47 22.52-7.98 4.02-8.44.46-18.56-7.96-22.6-8.4-4.04-18.5-.46-22.52 7.98"/><path fill="#E8E8E3" d="M154.3 159.62c-2.9 6.1-.34 13.4 5.73 16.3 6.07 2.9 13.34.34 16.24-5.76 2.9-6.1.33-13.4-5.74-16.3-6.07-2.9-13.34-.33-16.24 5.76"/><path fill="#445068" d="M171.9 167.36l3.63.2c-.17.64-.4 1.28-.7 1.92-.3.62-.64 1.2-1.04 1.73l-2.45-2.7c-.4-.44-.06-1.16.55-1.13m-4.16-9.12l.2-3.64c.64.18 1.28.4 1.9.7.63.3 1.2.66 1.74 1.06l-2.7 2.44c-.45.4-1.18.05-1.14-.56m-5.4.2l-2.44-2.7c1.17-.7 2.47-1.16 3.8-1.36l-.18 3.64c-.03.6-.78.88-1.2.42m-7.3 3.8c.18-.66.4-1.3.7-1.93.3-.6.65-1.2 1.05-1.72l2.43 2.7c.4.46.06 1.2-.55 1.16m13.05-.5l2.7-2.44c.7 1.17 1.15 2.47 1.35 3.82l-3.62-.2c-.6-.02-.88-.78-.43-1.2m-8.88 9.63l-.2 3.63c-.64-.17-1.28-.4-1.9-.7-.63-.3-1.2-.65-1.74-1.05l2.7-2.43a.685.685 0 0 1 1.14.55m5.4-.2l2.44 2.7c-1.17.7-2.47 1.15-3.8 1.35l.18-3.63c.03-.62.78-.9 1.2-.43m-9.4-3.5l-2.68 2.45c-.7-1.2-1.15-2.5-1.35-3.85l3.64.2c.6.03.88.78.42 1.2m4.6-3.83c-.46 1-.04 2.2.95 2.68 1 .48 2.2.06 2.67-.94.48-1 .06-2.2-.94-2.67-1-.5-2.18-.07-2.66.92m4.2-2.1c-.28.6-.04 1.3.54 1.56.6.27 1.28.03 1.56-.55.27-.58.03-1.28-.55-1.55-.57-.28-1.26-.03-1.53.54m-3.85-1.84c-.27.58-.02 1.27.55 1.55.58.28 1.27.03 1.55-.55.28-.58.03-1.27-.55-1.55-.57-.28-1.26-.03-1.54.55m.62 8.65c-.28.58-.04 1.27.54 1.55.57.28 1.26.03 1.54-.55.28-.58.04-1.27-.54-1.55-.58-.28-1.27-.03-1.54.55m-3.85-1.85c-.27.58-.02 1.28.55 1.55.6.28 1.28.03 1.56-.54.28-.58.04-1.28-.54-1.56a1.15 1.15 0 0 0-1.53.55m-.4-4.58c-.27.58-.03 1.28.55 1.56.58.26 1.27.02 1.55-.56.27-.58.03-1.28-.55-1.55a1.13 1.13 0 0 0-1.54.53m7.84 3.77c-.28.58-.04 1.27.54 1.55.58.27 1.27.03 1.55-.55.28-.58.04-1.27-.54-1.55-.58-.28-1.27-.03-1.54.55"/><path fill="#FFF3F2" d="M-19.62 128.9h21c.9.93.68 2.48-.46 3.1l-.1.06-21.36 6.5s-3-5 .92-9.67"/><path fill="#313C53" d="M127.47 121.05l1.17 10.06c2.3.13 5.07.2 8.36.25 3.3.04 6.58.04 9.87 0-4.3-2.47-7.92-4.48-10.87-6.05-2.95-1.57-5.8-2.98-8.53-4.25z"/><path fill="#445068" d="M140.14 167.94l2-25.95-6.6-17 .37.2 6.5 16.7-2 26.3-94.58-1.17v-.14c.24-15.68-8.74-27.2-22.76-27.4-4.26-4.5-3.78-10.44 1-14.25l1.14-.9.18.23-1.12.88c-4.65 3.7-5.13 9.43-1.13 13.74 14.12.25 23.17 11.82 22.98 27.54l94.04 1.2z"/><path fill="#5D7199" d="M124.35 126.3c-.14 2.14 1.8 4 4.34 4.18 2.52.16 4.7-1.43 4.83-3.56.14-2.14-1.8-4-4.34-4.17-2.55-.17-4.7 1.42-4.86 3.56"/><path fill="#445068" d="M78.25 108.43h-3.5l-4.2.18v-.2l4.2-.18h3.5v.23"/><path fill="#445068" d="M75.05 108.32l2.65 18c.46 3.15.7 6.32.7 9.5v31.58h-.28v-31.58c0-3.17-.24-6.33-.7-9.46l-2.64-18 .27-.04z"/></g></g><path fill="#FF9A00" fill-rule="nonzero" d="M171.23 30.06l-31.23-.3c0-4.54 3.73-8.23 8.33-8.23 1.45 0 2.8.36 4 1 1.23-5.8 6.44-10.15 12.67-10.15h.05c.48-6.65 6.07-11.9 12.92-11.9s12.44 5.25 12.92 11.9h.02c4.84 0 9.05 2.62 11.28 6.5.5-.06.97-.1 1.47-.1 6.52 0 11.8 5.23 11.8 11.68l-23.6-.22-20.64-.18z"/><path fill="#FFC400" fill-rule="nonzero" d="M128.07 17.28L113 17.14c0-2.2 1.8-3.98 4.02-3.98.7 0 1.36.18 1.93.5.6-2.8 3.1-4.92 6.12-4.92h.02C125.3 5.54 128 3 131.3 3s6 2.54 6.23 5.75h.02c2.34 0 4.37 1.26 5.45 3.14.23-.05.46-.07.7-.07 3.15 0 5.7 2.52 5.7 5.63l-11.4-.1-9.96-.1v.02z"/><g transform="translate(145 122)"><mask id="d" fill="#fff"><use xlink:href="#c"/></mask><g fill-rule="nonzero" mask="url(#d)"><path fill="#313C53" d="M42 21h-183v26H42"/><path fill="#5D7199" d="M-169.9 31.26c.06-4.16 1.52-8.18 4.16-11.4l1.4-14.42s-1.12-1.12-.42-1.82c.7-.7 13.4-1.96 13.4-1.96s21.75-9.52 45.6-13.58C-81.9-15.97-51.36-21.86-9.93-1c0 0 11.08 7.42 34.84 11.06C48.68 13.7 58.7 20.84 59.7 27c.57 3.63.9 10.15 1.06 14.9.1 3.26-2.34 6.03-5.58 6.3-4.6.37-10.77.8-13.6.75-.66 0-1.17-.6-1.1-1.3l.04-.26c.3-1.44.46-2.9.46-4.4 0-11.6-9.47-20.98-21.07-20.77-11 .2-19.98 9.14-20.3 20.14-.07 2.66.35 5.2 1.18 7.57l.03.44-104.05-1.53c-.3 0-.5-.28-.42-.55.45-1.7.7-3.47.7-5.3 0-11.47-9.27-20.76-20.7-20.76-11.42 0-20.68 9.3-20.68 20.76 0 1.12.1 2.22.26 3.3.07.32-.23.62-.56.56l-17.25-2.62c-2.76-.42-5.26-1.97-6.74-4.34-.48-.77-.86-1.63-1-2.54-.22-1.46-.26-3.82-.24-6.1"/><path fill="#FFF3F2" d="M27.04 15.1s10.32.84 21.48 9.66c0 0 6.98 2.66 7.67 2.1.7-.56.82-5.04-5.04-7.7s-14.1-4.62-24.13-4.06"/><path fill="#445068" d="M-119.7 3.48l-9.07-4.2s33.37-12.92 64.8-12.04c31.4.88 65.83 23.1 65.83 23.1-18 1.15-60.6-3.64-60.6-3.64l-60.97-3.22zM48.42 37.96c-.66.74-1.75 2.64-2.63 4.28-.68 1.23.2 2.72 1.6 2.72h8.96s.84-5.04-1.4-6.16c-2.22-1.12-6.55-.84-6.55-.84M5.05 36.58c-4.02 8.45-.46 18.57 7.96 22.6 8.4 4.04 18.5.47 22.52-7.98 4.02-8.44.46-18.56-7.96-22.6-8.4-4.04-18.5-.46-22.52 7.98"/><path fill="#E8E8E3" d="M9.3 38.62c-2.9 6.1-.34 13.4 5.73 16.3 6.07 2.9 13.34.34 16.24-5.76 2.9-6.1.33-13.4-5.74-16.3-6.07-2.9-13.34-.33-16.24 5.76"/><path fill="#445068" d="M26.9 46.36l3.63.2c-.17.64-.4 1.28-.7 1.92-.3.62-.64 1.2-1.04 1.73l-2.45-2.7c-.4-.44-.06-1.16.55-1.13m-4.16-9.12l.2-3.64c.64.18 1.28.4 1.9.7.63.3 1.2.66 1.74 1.06l-2.7 2.44c-.45.4-1.18.05-1.14-.56m-5.4.2l-2.44-2.7c1.17-.7 2.47-1.16 3.8-1.36l-.18 3.64c-.03.6-.78.88-1.2.42m-7.3 3.8c.18-.66.4-1.3.7-1.93.3-.6.65-1.2 1.05-1.72l2.43 2.7c.4.46.06 1.2-.55 1.16m13.05-.5l2.7-2.44c.7 1.17 1.15 2.47 1.35 3.82l-3.62-.2c-.6-.02-.88-.78-.43-1.2m-8.88 9.63l-.2 3.63c-.64-.17-1.28-.4-1.9-.7-.63-.3-1.2-.65-1.74-1.05l2.7-2.43a.685.685 0 0 1 1.14.55m5.4-.2l2.44 2.7c-1.17.7-2.47 1.15-3.8 1.35l.18-3.63c.03-.62.78-.9 1.2-.43m-9.4-3.5l-2.68 2.45c-.7-1.2-1.15-2.5-1.35-3.85l3.64.2c.6.03.88.78.42 1.2m4.6-3.83c-.46 1-.04 2.2.95 2.68 1 .48 2.2.06 2.67-.94.48-1 .06-2.2-.94-2.67-1-.5-2.18-.07-2.66.92m4.2-2.1c-.28.6-.04 1.3.54 1.56.6.27 1.28.03 1.56-.55.27-.58.03-1.28-.55-1.55-.57-.28-1.26-.03-1.53.54m-3.9-1.83c-.27.58-.02 1.27.55 1.55.58.28 1.27.03 1.55-.55.28-.58.03-1.27-.55-1.55-.57-.28-1.26-.03-1.54.55m.63 8.65c-.28.58-.04 1.27.54 1.55.58.28 1.27.03 1.55-.55.28-.58.04-1.27-.54-1.55-.58-.28-1.27-.03-1.54.55M15.6 45.9c-.3.58-.04 1.28.53 1.55.6.28 1.28.03 1.56-.54.26-.56.02-1.26-.56-1.54a1.15 1.15 0 0 0-1.53.55m-.4-4.56c-.26.58-.02 1.28.56 1.56.58.26 1.27.02 1.55-.56.28-.58.04-1.28-.54-1.55-.58-.3-1.27-.05-1.54.52m7.84 3.77c-.28.57-.04 1.26.54 1.54.58.27 1.27.03 1.55-.55.28-.6.04-1.28-.54-1.56-.57-.28-1.26-.03-1.53.55"/><path fill="#313C53" d="M-17.53.05l1.17 10.06c2.3.13 5.07.2 8.36.25 3.3.04 6.58.04 9.87 0C-2.43 7.88-6.05 5.87-9 4.3c-2.95-1.57-5.8-2.98-8.53-4.25z"/></g></g><path fill="#FFF" fill-rule="nonzero" d="M137.42 86.3h3.15c12.88 0 23.32-10.44 23.32-23.32s-10.46-23.32-23.34-23.32H50.94c-12.88 0-23.32 10.44-23.32 23.32S38.06 86.3 50.94 86.3h69.42c-1.07 10.67-13.15 9.65-12.02 11.93 1.16 2.33 19.4 0 26.4-7.92 1.2-1.37 2.1-2.72 2.68-4z"/><path fill="#06A09D" fill-rule="nonzero" d="M58.1 75.45c3.62 0 4.85-2.43 4.95-4.86v-.44h-2.88c.07 1.44-.53 2.4-2.04 2.4-.92 0-1.76-.3-2.5-.57-.7-.3-1.38-.57-2.12-.8.2-.83.27-1.78.27-2.9 0-.95-.18-1.83-.46-2.7h5.3v-2.7h-6.45c-.88-1.47-1.65-2.9-1.65-4.46 0-2.15 1.15-3.94 3.68-3.94 2.68 0 3.7 1.52 3.7 4v.16H61v-.35c0-3.9-2.6-6.53-6.73-6.53-4.4 0-7.07 2.64-7.07 6.5v.47c0 1.37.63 2.96 1.27 4.16h-2.08v2.7h3.52c.44.95.8 1.97.8 3.02 0 .67-.08 1.38-.15 1.97h-.25c-3.12.1-4.5 1.96-4.35 4.56h3.02c0-1.16.64-1.7 2.05-1.7 1.26 0 2.07.47 3.2.93 1.12.5 2.25 1.04 3.87 1.04zm16.04-7.4l.1-4.18c2.8-.8 5.1-3.03 5.1-6.05v-.2c0-3.6-2.9-5.82-6.54-5.82-3.38 0-6.37 1.7-6.6 5.56v.28h3.12c0-1.7.84-3.2 3.48-3.2 2 0 3.35 1.55 3.35 3.4 0 2.8-2.1 3.74-4.72 3.92l-.25.25.22 6.07h2.74v-.02zm-1.37 7.37c1.23 0 2.3-.8 2.3-2.12v-.1c0-1.34-1.07-2.08-2.3-2.08-1.27 0-2.32.74-2.32 2.08v.1c0 1.3 1.05 2.12 2.32 2.12zm18.3-7.36l.1-4.2c2.8-.8 5.1-3.02 5.1-6.04v-.2c0-3.6-2.9-5.82-6.53-5.82-3.38 0-6.38 1.7-6.62 5.56v.28h3.13c0-1.7.85-3.2 3.5-3.2 2 0 3.33 1.55 3.33 3.4 0 2.8-2.1 3.74-4.72 3.92l-.24.25.2 6.07h2.75zm-1.37 7.36c1.23 0 2.3-.8 2.3-2.12v-.1c0-1.34-1.07-2.08-2.3-2.08-1.27 0-2.32.74-2.32 2.08v.1c0 1.3 1.05 2.12 2.32 2.12zm18.3-7.36l.1-4.2c2.8-.8 5.1-3.02 5.1-6.04v-.2c0-3.6-2.9-5.82-6.53-5.82-3.38 0-6.37 1.7-6.62 5.56v.28h3.13c0-1.7.85-3.2 3.5-3.2 2 0 3.33 1.55 3.33 3.4 0 2.8-2.1 3.74-4.7 3.92l-.24.25.2 6.07H108zm-1.37 7.36c1.23 0 2.3-.8 2.3-2.12v-.1c0-1.34-1.07-2.08-2.3-2.08-1.27 0-2.32.74-2.32 2.08v.1c0 1.3 1.07 2.12 2.34 2.12zm18.3-7.36l.1-4.2c2.8-.8 5.1-3.02 5.1-6.04v-.2c0-3.6-2.9-5.82-6.53-5.82-3.38 0-6.37 1.7-6.62 5.56v.28h3.13c0-1.7.87-3.2 3.5-3.2 2 0 3.35 1.55 3.35 3.4 0 2.8-2.1 3.74-4.72 3.92L122 62l.2 6.07h2.75-.02zm-1.37 7.36c1.23 0 2.3-.8 2.3-2.12v-.1c0-1.34-1.07-2.08-2.3-2.08-1.26 0-2.32.74-2.32 2.08v.1c0 1.3 1.06 2.12 2.32 2.12zm18.3-7.36l.1-4.2c2.8-.8 5.12-3.02 5.12-6.04v-.2c0-3.6-2.93-5.82-6.55-5.82-3.38 0-6.37 1.7-6.62 5.56v.28h3.15c0-1.7.85-3.2 3.5-3.2 2 0 3.33 1.55 3.33 3.4 0 2.8-2.1 3.74-4.7 3.92l-.26.25.22 6.07h2.75-.04zm-1.37 7.36c1.22 0 2.27-.8 2.27-2.12v-.1c0-1.34-1.05-2.08-2.3-2.08-1.25 0-2.3.74-2.3 2.08v.1c0 1.3 1.05 2.12 2.3 2.12h.02z"/></g></svg>